<svg xmlns="http://www.w3.org/2000/svg" viewBox="0 0 62.93 60.16"><title>Risorsa 2</title><g id="Livello_2" data-name="Livello 2"><g id="Livello_1-2" data-name="Livello 1"><path d="M62,13.93A20.08,20.08,0,0,0,50.74,1.32,14.69,14.69,0,0,0,44.7,0,19.51,19.51,0,0,0,31.47,4.69,19.53,19.53,0,0,0,18.24,0a14.77,14.77,0,0,0-6,1.32A20.06,20.06,0,0,0,.93,13.93C-1.16,20.8.31,28.68,5.08,36.11c8.79,13.72,24.18,22.77,24.83,23.14l1.56.91L33,59.25c.65-.37,16-9.41,24.84-23.14C62.62,28.67,64.1,20.79,62,13.93ZM52.67,32.84c-6.44,10-17.26,17.63-21.2,20.19-3.94-2.55-14.75-10.11-21.21-20.19-3.79-5.91-5-12-3.45-17.15A14.06,14.06,0,0,1,14.7,6.88a8.75,8.75,0,0,1,3.54-.78c6.06,0,10.68,5,10.69,5l2.54,2.59,2.43-2.47.09-.09c.39-.43,4.82-5.05,10.71-5.05a8.74,8.74,0,0,1,3.53.78,14,14,0,0,1,7.89,8.81C57.69,20.83,56.46,26.92,52.67,32.84Z"/></g></g></svg>