<svg xmlns="http://www.w3.org/2000/svg" viewBox="0 0 67.9 74.59"><title>account2</title><g id="Livello_2" data-name="Livello 2"><g id="Livello_1-2" data-name="Livello 1"><path d="M34,74.59A205.9,205.9,0,0,1,7.7,72.77a19.69,19.69,0,0,1-3.79-.88C.65,70.75,0,69.05,0,66.68v-.14C0,52,12.38,43.69,34,43.69s34,8.33,34,22.85c0,2.49-.64,4.17-3.94,5.34h0a18.65,18.65,0,0,1-3.71.9A193.13,193.13,0,0,1,34,74.59ZM6,66.26a13.57,13.57,0,0,0,2.5.57A200.81,200.81,0,0,0,34,68.59a185.25,185.25,0,0,0,25.44-1.75,13,13,0,0,0,2.51-.59C61.78,58.62,56.77,49.69,34,49.69S6.12,58.64,6,66.26Z"/><path d="M34,41.11c-11.59,0-19.38-11-19.38-21.32C14.57,8.69,23.08,0,34,0S53.34,8.69,53.34,19.79C53.34,30.09,45.55,41.11,34,41.11ZM34,6A13.45,13.45,0,0,0,20.57,19.79c0,7.4,5.37,15.32,13.38,15.32s13.39-7.92,13.39-15.32A13.45,13.45,0,0,0,34,6Z"/></g></g></svg>